<svg id="Layer_1" data-name="Layer 1" xmlns="http://www.w3.org/2000/svg" viewBox="0 0 496.6723 434.3934">
  <defs>
    <style>
      .cls-1, .cls-2 {
        fill: #fff;
      }

      .cls-2, .cls-3, .cls-4 {
        fill-rule: evenodd;
      }

      .cls-3 {
        fill: #4d5b88;
      }

      .cls-4 {
        fill: #0d0f1f;
      }
    </style>
  </defs>
  <g>
    <g>
      <rect class="cls-1" x="369.2339" y="337.2997" width="125.0145" height="29.684" transform="translate(320.3774 -227.1679) rotate(39.4426)"/>
      <polygon class="cls-2" points="377.089 327.964 245.685 409.475 116.457 324.554 118.634 158.123 250.039 76.613 379.266 161.533 377.089 327.964"/>
      <rect class="cls-1" x="3.6669" y="344.4292" width="125.0145" height="29.684" transform="translate(-226.2228 104.9951) rotate(-42.2986)"/>
    </g>
    <path class="cls-3" d="M244.2545,222.09A14.2768,14.2768,0,1,1,262.82,200.3959L368.6936,290.643V194.6222L253.5342,99.7939,132.5954,199.3765q-.1951.1579-.3908.307l139.988,115.0072a14.2652,14.2652,0,0,1-18.1192,22.0381L131.3007,235.86v79.93a14.405,14.405,0,0,1,1.2947.9477l120.9388,99.5826,111.1821-91.5481Z" transform="translate(-1.6639 -33.0769)"/>
    <polygon class="cls-3" points="395.662 27.263 395.662 280.344 468.04 343.27 468.04 90.189 395.662 27.263"/>
    <polygon class="cls-3" points="101.005 280.344 101.005 27.263 28.638 90.189 28.638 343.264 101.005 280.344"/>
    <g>
      <path class="cls-4" d="M393.2063,37.3454l100.149,87.0722a14.248,14.248,0,0,1,4.9377,10.7913h.0431v290.903A14.3157,14.3157,0,0,1,473.8234,436.16L373.6744,349.087a14.2356,14.2356,0,0,1-4.9313-10.7882h-.05V47.3926a14.3152,14.3152,0,0,1,24.5127-10.0472Zm76.4978,104.3274-72.3785-62.916V331.8286l72.3785,62.9192Z" transform="translate(-1.6639 -33.0769)"/>
      <path class="cls-4" d="M102.6687,78.7568l-72.3664,62.916v253.075l72.3664-62.9192V78.7568Zm-96.03,45.6608L106.7944,37.3454a14.3107,14.3107,0,0,1,24.5063,10.0472V338.2988h-.0438a14.235,14.235,0,0,1-4.9307,10.7882L26.17,436.16A14.3112,14.3112,0,0,1,1.6639,426.1119V135.2089h.05A14.2366,14.2366,0,0,1,6.6383,124.4176Z" transform="translate(-1.6639 -33.0769)"/>
      <path class="cls-4" d="M493.3,415.2616a14.2779,14.2779,0,1,1-18.5657,21.6968L244.2545,240.5A14.278,14.278,0,1,1,262.82,218.8031Z" transform="translate(-1.6639 -33.0769)"/>
      <path class="cls-4" d="M25.2656,436.9584A14.2777,14.2777,0,1,1,6.7005,415.2616l99.6105-84.9072A14.2759,14.2759,0,1,1,124.87,352.0512Z" transform="translate(-1.6639 -33.0769)"/>
      <path class="cls-4" d="M390.4247,193.9625A14.267,14.267,0,1,1,372.2992,216L244.4778,110.7464a14.264,14.264,0,1,1,18.1192-22.035Z" transform="translate(-1.6639 -33.0769)"/>
      <path class="cls-4" d="M132.5954,217.7875a14.263,14.263,0,1,1-18.12-22.0318L244.4778,88.7114a14.264,14.264,0,0,1,18.1192,22.035Z" transform="translate(-1.6639 -33.0769)"/>
      <path class="cls-4" d="M372.2992,336.9331a14.267,14.267,0,1,1,18.1255,22.0375L262.597,464.2248a14.2628,14.2628,0,1,1-18.1192-22.0318Z" transform="translate(-1.6639 -33.0769)"/>
      <path class="cls-4" d="M114.4756,357.1773a14.263,14.263,0,1,1,18.12-22.0318L262.597,442.193a14.2628,14.2628,0,0,1-18.1192,22.0318Z" transform="translate(-1.6639 -33.0769)"/>
      <path class="cls-4" d="M112.3321,238.6883a14.265,14.265,0,0,1,18.1262-22.0318l141.7343,116.442a14.265,14.265,0,0,1-18.1192,22.0375Z" transform="translate(-1.6639 -33.0769)"/>
    </g>
  </g>
</svg>
